<svg width="24" height="24" viewBox="0 0 24 24" fill="none" xmlns="http://www.w3.org/2000/svg">
<mask id="mask0_264_5106" style="mask-type:alpha" maskUnits="userSpaceOnUse" x="0" y="0" width="24" height="24">
<rect width="24" height="24" fill="#D9D9D9"/>
</mask>
<g mask="url(#mask0_264_5106)">
<path d="M7.03845 20C6.89678 20 6.77803 19.9521 6.6822 19.8563C6.58637 19.7604 6.53845 19.6417 6.53845 19.5V17.6039C6.21282 17.4628 5.875 17.1625 5.525 16.7029C5.175 16.2433 5 15.7141 5 15.1154V6C5 4.9625 5.56141 4.20312 6.68422 3.72188C7.80704 3.24062 9.57876 3 11.9994 3C14.5075 3 16.3013 3.23125 17.3808 3.69375C18.4603 4.15625 19 4.925 19 6V15.1154C19 15.7141 18.825 16.2433 18.475 16.7029C18.125 17.1625 17.7872 17.4628 17.4615 17.6039V19.5C17.4615 19.6417 17.4136 19.7604 17.3178 19.8563C17.222 19.9521 17.1032 20 16.9615 20H16.7308C16.5891 20 16.4704 19.9521 16.3745 19.8563C16.2787 19.7604 16.2308 19.6417 16.2308 19.5V18H7.76923V19.5C7.76923 19.6417 7.72131 19.7604 7.62548 19.8563C7.52964 19.9521 7.41089 20 7.26923 20H7.03845ZM6 11H18V6.53848H6V11ZM8.50452 15.6154C8.81561 15.6154 9.07853 15.5065 9.29327 15.2887C9.50801 15.071 9.61538 14.8066 9.61538 14.4955C9.61538 14.1844 9.5065 13.9215 9.28875 13.7067C9.07098 13.492 8.80656 13.3846 8.49548 13.3846C8.18439 13.3846 7.92148 13.4935 7.70673 13.7113C7.49199 13.929 7.38463 14.1934 7.38463 14.5045C7.38463 14.8156 7.4935 15.0785 7.71125 15.2933C7.92902 15.508 8.19344 15.6154 8.50452 15.6154ZM15.5045 15.6154C15.8156 15.6154 16.0785 15.5065 16.2933 15.2887C16.508 15.071 16.6154 14.8066 16.6154 14.4955C16.6154 14.1844 16.5065 13.9215 16.2887 13.7067C16.071 13.492 15.8066 13.3846 15.4955 13.3846C15.1844 13.3846 14.9215 13.4935 14.7067 13.7113C14.492 13.929 14.3846 14.1934 14.3846 14.5045C14.3846 14.8156 14.4935 15.0785 14.7113 15.2933C14.929 15.508 15.1934 15.6154 15.5045 15.6154ZM6.10385 5.53845H17.9192C17.7462 5.02435 17.2119 4.63942 16.3163 4.38365C15.4208 4.12788 13.9859 4 12.0116 4C10.0487 4 8.61955 4.12981 7.72405 4.38942C6.82853 4.64904 6.28847 5.03205 6.10385 5.53845ZM8 17H16C16.55 17 17.0208 16.8042 17.4125 16.4125C17.8042 16.0208 18 15.55 18 15V12H6V15C6 15.55 6.19583 16.0208 6.5875 16.4125C6.97917 16.8042 7.45 17 8 17Z" fill="white"/>
</g>
</svg>
