<svg width="24" height="24" viewBox="0 0 24 24" fill="none" xmlns="http://www.w3.org/2000/svg">
<path d="M21 3.9375H3C1.8615 3.939 0.939 4.8615 0.9375 6V18C0.939 19.1385 1.8615 20.061 3 20.0625H21C22.1385 20.061 23.061 19.1385 23.0625 18V6C23.061 4.8615 22.1385 3.939 21 3.9375ZM3 5.0625H21C21.5175 5.06325 21.9368 5.4825 21.9375 6V6.9375H2.0625V6C2.06325 5.4825 2.4825 5.06325 3 5.0625ZM21 18.9375H3C2.4825 18.9368 2.06325 18.5175 2.0625 18V8.0625H21.9375V18C21.9368 18.5175 21.5175 18.9368 21 18.9375ZM7.23375 13.221C8.325 13.221 9.21 12.336 9.21 11.2448C9.21 10.1535 8.325 9.2685 7.23375 9.2685C6.1425 9.2685 5.2575 10.1535 5.2575 11.2448C5.25825 12.336 6.1425 13.2195 7.23375 13.221ZM7.23375 10.3935C7.704 10.3935 8.085 10.7745 8.085 11.2448C8.085 11.715 7.704 12.096 7.23375 12.096C6.7635 12.096 6.3825 11.715 6.3825 11.2448C6.38325 10.7745 6.7635 10.3942 7.23375 10.3935ZM7.23375 14.1083C5.62125 14.115 4.2735 15.2407 3.92625 16.7482L3.92175 16.7715C3.9135 16.8075 3.909 16.8487 3.909 16.8915C3.909 17.202 4.161 17.454 4.4715 17.454C4.73925 17.454 4.9635 17.2665 5.01975 17.0153L5.0205 17.0115C5.25225 15.987 6.1545 15.2333 7.23375 15.2333C8.313 15.2333 9.21525 15.987 9.444 16.9965L9.447 17.0115C9.50475 17.265 9.72825 17.4517 9.996 17.4517C10.3065 17.4517 10.5585 17.1997 10.5585 16.8892C10.5585 16.8472 10.554 16.8068 10.545 16.767L10.5457 16.7708C10.194 15.24 8.847 14.115 7.23525 14.1075H7.2345L7.23375 14.1083ZM19.5 9.9375H13.5C13.1895 9.9375 12.9375 10.1895 12.9375 10.5C12.9375 10.8105 13.1895 11.0625 13.5 11.0625H19.5C19.8105 11.0625 20.0625 10.8105 20.0625 10.5C20.0625 10.1895 19.8105 9.9375 19.5 9.9375ZM19.5 12.9375H13.5C13.1895 12.9375 12.9375 13.1895 12.9375 13.5C12.9375 13.8105 13.1895 14.0625 13.5 14.0625H19.5C19.8105 14.0625 20.0625 13.8105 20.0625 13.5C20.0625 13.1895 19.8105 12.9375 19.5 12.9375ZM19.5 15.9375H13.5C13.1895 15.9375 12.9375 16.1895 12.9375 16.5C12.9375 16.8105 13.1895 17.0625 13.5 17.0625H19.5C19.8105 17.0625 20.0625 16.8105 20.0625 16.5C20.0625 16.1895 19.8105 15.9375 19.5 15.9375Z" fill="white"/>
</svg>
