<svg width="24" height="24" viewBox="0 0 24 24" fill="none" xmlns="http://www.w3.org/2000/svg">
<path d="M22.2071 2.45526C22.0909 2.35492 21.9495 2.28819 21.7982 2.26225C21.6469 2.23631 21.4914 2.25216 21.3484 2.30807L2.349 9.74339C2.07974 9.84809 1.85177 10.0374 1.69943 10.2829C1.54709 10.5284 1.47861 10.8167 1.50431 11.1045C1.53001 11.3922 1.64849 11.6638 1.84192 11.8784C2.03535 12.093 2.29326 12.239 2.57681 12.2943L7.49963 13.2609V18.75C7.49866 19.0489 7.58751 19.3413 7.75467 19.5892C7.92182 19.8371 8.15958 20.0291 8.43713 20.1403C8.71424 20.2534 9.019 20.2806 9.31176 20.2182C9.60452 20.1559 9.87175 20.0068 10.0787 19.7906L12.4524 17.3287L16.2184 20.625C16.4901 20.866 16.8405 20.9993 17.2037 21C17.3628 20.9998 17.521 20.9748 17.6724 20.9259C17.9199 20.8474 18.1425 20.7054 18.318 20.5141C18.4935 20.3228 18.6158 20.0889 18.6728 19.8356L22.4781 3.2812C22.5121 3.1319 22.5049 2.97616 22.4571 2.83066C22.4094 2.68516 22.323 2.55539 22.2071 2.45526ZM16.4753 5.83026L8.07619 11.8453L3.42619 10.9331L16.4753 5.83026ZM8.99963 18.75V14.2987L11.3237 16.3368L8.99963 18.75ZM17.2056 19.5L9.45431 12.7031L20.6106 4.70714L17.2056 19.5Z" fill="white"/>
</svg>
