<svg aria-hidden="true" style="position: absolute; width: 0; height: 0; overflow: hidden;" version="1.1" xmlns="http://www.w3.org/2000/svg" xmlns:xlink="http://www.w3.org/1999/xlink">
<defs>
<symbol id="icon-ph_facebook-logo" viewBox="0 0 32 32">
<path fill="#fff" style="fill: var(--color1, #fff)" d="M16 3c-2.571 0-5.085 0.762-7.222 2.191s-3.804 3.459-4.788 5.834c-0.984 2.375-1.241 4.989-0.74 7.511s1.74 4.838 3.558 6.656c1.818 1.818 4.134 3.056 6.656 3.558s5.136 0.244 7.511-0.74c2.375-0.984 4.406-2.65 5.834-4.788s2.191-4.651 2.191-7.222c-0.004-3.447-1.374-6.751-3.812-9.188s-5.742-3.808-9.188-3.812zM17 26.954v-7.954h3c0.265 0 0.52-0.105 0.707-0.293s0.293-0.442 0.293-0.707-0.105-0.52-0.293-0.707c-0.187-0.188-0.442-0.293-0.707-0.293h-3v-3c0-0.53 0.211-1.039 0.586-1.414s0.884-0.586 1.414-0.586h2c0.265 0 0.52-0.105 0.707-0.293s0.293-0.442 0.293-0.707-0.105-0.52-0.293-0.707c-0.187-0.188-0.442-0.293-0.707-0.293h-2c-1.061 0-2.078 0.421-2.828 1.172s-1.172 1.768-1.172 2.828v3h-3c-0.265 0-0.52 0.105-0.707 0.293s-0.293 0.442-0.293 0.707 0.105 0.52 0.293 0.707c0.188 0.188 0.442 0.293 0.707 0.293h3v7.954c-2.819-0.257-5.43-1.591-7.291-3.725s-2.827-4.902-2.698-7.73c0.129-2.828 1.343-5.497 3.389-7.453s4.768-3.047 7.599-3.047c2.831 0 5.553 1.091 7.599 3.047s3.261 4.625 3.389 7.453c0.129 2.828-0.838 5.596-2.698 7.73s-4.472 3.468-7.291 3.725z"></path>
</symbol>
<symbol id="icon-ph_instagram-logo" viewBox="0 0 32 32">
<path fill="#fff" style="fill: var(--color1, #fff)" d="M16 10c-1.187 0-2.347 0.352-3.333 1.011s-1.756 1.596-2.21 2.693c-0.454 1.096-0.573 2.303-0.341 3.467s0.803 2.233 1.642 3.072c0.839 0.839 1.908 1.411 3.072 1.642s2.37 0.113 3.467-0.341c1.096-0.454 2.033-1.223 2.693-2.21s1.011-2.147 1.011-3.333c-0.002-1.591-0.634-3.116-1.759-4.241s-2.65-1.758-4.241-1.759zM16 20c-0.791 0-1.565-0.235-2.222-0.674s-1.171-1.064-1.473-1.795c-0.303-0.731-0.382-1.535-0.228-2.311s0.535-1.489 1.095-2.048c0.559-0.559 1.272-0.94 2.048-1.095s1.58-0.075 2.311 0.228c0.731 0.303 1.356 0.815 1.795 1.473s0.674 1.431 0.674 2.222c0 1.061-0.421 2.078-1.172 2.828s-1.768 1.172-2.828 1.172zM22 3h-12c-1.856 0.002-3.635 0.74-4.948 2.052s-2.050 3.092-2.052 4.948v12c0.002 1.856 0.74 3.635 2.052 4.948s3.092 2.050 4.948 2.052h12c1.856-0.002 3.635-0.74 4.948-2.052s2.050-3.092 2.052-4.948v-12c-0.002-1.856-0.74-3.635-2.052-4.948s-3.092-2.050-4.948-2.052zM27 22c0 1.326-0.527 2.598-1.465 3.535s-2.209 1.465-3.535 1.465h-12c-1.326 0-2.598-0.527-3.536-1.465s-1.464-2.209-1.464-3.535v-12c0-1.326 0.527-2.598 1.464-3.536s2.209-1.464 3.536-1.464h12c1.326 0 2.598 0.527 3.535 1.464s1.465 2.209 1.465 3.536v12zM24 9.5c0 0.297-0.088 0.587-0.253 0.833s-0.399 0.439-0.673 0.552c-0.274 0.114-0.576 0.143-0.867 0.085s-0.558-0.201-0.768-0.411-0.353-0.477-0.411-0.768c-0.058-0.291-0.028-0.593 0.085-0.867s0.306-0.508 0.553-0.673 0.537-0.253 0.833-0.253c0.398 0 0.779 0.158 1.061 0.439s0.439 0.663 0.439 1.061z"></path>
</symbol>
<symbol id="icon-ph_telegram-logo" viewBox="0 0 32 32">
<path fill="#fff" style="fill: var(--color1, #fff)" d="M29.609 3.274c-0.155-0.134-0.343-0.223-0.545-0.257s-0.409-0.013-0.6 0.061l-25.333 9.914c-0.359 0.14-0.663 0.392-0.866 0.719s-0.294 0.712-0.26 1.095c0.034 0.384 0.192 0.746 0.45 1.032s0.602 0.481 0.98 0.555l6.564 1.289v7.319c-0.001 0.399 0.117 0.788 0.34 1.119s0.54 0.587 0.91 0.735c0.369 0.151 0.776 0.187 1.166 0.104s0.747-0.282 1.023-0.57l3.165-3.283 5.021 4.395c0.362 0.321 0.829 0.499 1.314 0.5 0.212-0 0.423-0.034 0.625-0.099 0.33-0.105 0.627-0.294 0.861-0.549s0.397-0.567 0.473-0.905l5.074-22.073c0.045-0.199 0.036-0.407-0.028-0.601s-0.179-0.367-0.333-0.501zM21.967 7.774l-11.199 8.020-6.2-1.216 17.399-6.804zM11.999 25v-5.935l3.099 2.717-3.099 3.218zM22.941 26l-10.335-9.063 14.875-10.661-4.54 19.724z"></path>
</symbol>
<symbol id="icon-arrow-right2" viewBox="0 0 32 32">
<path d="M19.414 27.414l10-10c0.781-0.781 0.781-2.047 0-2.828l-10-10c-0.781-0.781-2.047-0.781-2.828 0s-0.781 2.047 0 2.828l6.586 6.586h-19.172c-1.105 0-2 0.895-2 2s0.895 2 2 2h19.172l-6.586 6.586c-0.39 0.39-0.586 0.902-0.586 1.414s0.195 1.024 0.586 1.414c0.781 0.781 2.047 0.781 2.828 0z"></path>
</symbol>
<symbol id="icon-arrow-left2" viewBox="0 0 32 32">
<path d="M12.586 27.414l-10-10c-0.781-0.781-0.781-2.047 0-2.828l10-10c0.781-0.781 2.047-0.781 2.828 0s0.781 2.047 0 2.828l-6.586 6.586h19.172c1.105 0 2 0.895 2 2s-0.895 2-2 2h-19.172l6.586 6.586c0.39 0.39 0.586 0.902 0.586 1.414s-0.195 1.024-0.586 1.414c-0.781 0.781-2.047 0.781-2.828 0z"></path>
</symbol>
</defs>
</svg>
