<svg aria-hidden="true" style="position: absolute; width: 0; height: 0; overflow: hidden;" version="1.1" xmlns="http://www.w3.org/2000/svg" xmlns:xlink="http://www.w3.org/1999/xlink">
<defs>
<symbol id="icon-ph_facebook-logo" viewBox="0 0 32 32">
<path fill="#fff" style="fill: var(--color1, #fff)" d="M16 3c-2.571 0-5.085 0.762-7.222 2.191s-3.804 3.459-4.788 5.834c-0.984 2.375-1.241 4.989-0.74 7.511s1.74 4.838 3.558 6.656c1.818 1.818 4.134 3.056 6.656 3.558s5.136 0.244 7.511-0.74c2.375-0.984 4.406-2.65 5.834-4.788s2.191-4.651 2.191-7.222c-0.004-3.447-1.374-6.751-3.812-9.188s-5.742-3.808-9.188-3.812zM17 26.954v-7.954h3c0.265 0 0.52-0.105 0.707-0.293s0.293-0.442 0.293-0.707-0.105-0.52-0.293-0.707c-0.187-0.188-0.442-0.293-0.707-0.293h-3v-3c0-0.53 0.211-1.039 0.586-1.414s0.884-0.586 1.414-0.586h2c0.265 0 0.52-0.105 0.707-0.293s0.293-0.442 0.293-0.707-0.105-0.52-0.293-0.707c-0.187-0.188-0.442-0.293-0.707-0.293h-2c-1.061 0-2.078 0.421-2.828 1.172s-1.172 1.768-1.172 2.828v3h-3c-0.265 0-0.52 0.105-0.707 0.293s-0.293 0.442-0.293 0.707 0.105 0.52 0.293 0.707c0.188 0.188 0.442 0.293 0.707 0.293h3v7.954c-2.819-0.257-5.43-1.591-7.291-3.725s-2.827-4.902-2.698-7.73c0.129-2.828 1.343-5.497 3.389-7.453s4.768-3.047 7.599-3.047c2.831 0 5.553 1.091 7.599 3.047s3.261 4.625 3.389 7.453c0.129 2.828-0.838 5.596-2.698 7.73s-4.472 3.468-7.291 3.725z"></path>
</symbol>
<symbol id="icon-ph_instagram-logo" viewBox="0 0 32 32">
<path fill="#fff" style="fill: var(--color1, #fff)" d="M16 10c-1.187 0-2.347 0.352-3.333 1.011s-1.756 1.596-2.21 2.693c-0.454 1.096-0.573 2.303-0.341 3.467s0.803 2.233 1.642 3.072c0.839 0.839 1.908 1.411 3.072 1.642s2.37 0.113 3.467-0.341c1.096-0.454 2.033-1.223 2.693-2.21s1.011-2.147 1.011-3.333c-0.002-1.591-0.634-3.116-1.759-4.241s-2.65-1.758-4.241-1.759zM16 20c-0.791 0-1.565-0.235-2.222-0.674s-1.171-1.064-1.473-1.795c-0.303-0.731-0.382-1.535-0.228-2.311s0.535-1.489 1.095-2.048c0.559-0.559 1.272-0.94 2.048-1.095s1.58-0.075 2.311 0.228c0.731 0.303 1.356 0.815 1.795 1.473s0.674 1.431 0.674 2.222c0 1.061-0.421 2.078-1.172 2.828s-1.768 1.172-2.828 1.172zM22 3h-12c-1.856 0.002-3.635 0.74-4.948 2.052s-2.050 3.092-2.052 4.948v12c0.002 1.856 0.74 3.635 2.052 4.948s3.092 2.050 4.948 2.052h12c1.856-0.002 3.635-0.74 4.948-2.052s2.050-3.092 2.052-4.948v-12c-0.002-1.856-0.74-3.635-2.052-4.948s-3.092-2.050-4.948-2.052zM27 22c0 1.326-0.527 2.598-1.465 3.535s-2.209 1.465-3.535 1.465h-12c-1.326 0-2.598-0.527-3.536-1.465s-1.464-2.209-1.464-3.535v-12c0-1.326 0.527-2.598 1.464-3.536s2.209-1.464 3.536-1.464h12c1.326 0 2.598 0.527 3.535 1.464s1.465 2.209 1.465 3.536v12zM24 9.5c0 0.297-0.088 0.587-0.253 0.833s-0.399 0.439-0.673 0.552c-0.274 0.114-0.576 0.143-0.867 0.085s-0.558-0.201-0.768-0.411-0.353-0.477-0.411-0.768c-0.058-0.291-0.028-0.593 0.085-0.867s0.306-0.508 0.553-0.673 0.537-0.253 0.833-0.253c0.398 0 0.779 0.158 1.061 0.439s0.439 0.663 0.439 1.061z"></path>
</symbol>
<symbol id="icon-ph_telegram-logo" viewBox="0 0 32 32">
<path fill="#fff" style="fill: var(--color1, #fff)" d="M29.609 3.274c-0.155-0.134-0.343-0.223-0.545-0.257s-0.409-0.013-0.6 0.061l-25.333 9.914c-0.359 0.14-0.663 0.392-0.866 0.719s-0.294 0.712-0.26 1.095c0.034 0.384 0.192 0.746 0.45 1.032s0.602 0.481 0.98 0.555l6.564 1.289v7.319c-0.001 0.399 0.117 0.788 0.34 1.119s0.54 0.587 0.91 0.735c0.369 0.151 0.776 0.187 1.166 0.104s0.747-0.282 1.023-0.57l3.165-3.283 5.021 4.395c0.362 0.321 0.829 0.499 1.314 0.5 0.212-0 0.423-0.034 0.625-0.099 0.33-0.105 0.627-0.294 0.861-0.549s0.397-0.567 0.473-0.905l5.074-22.073c0.045-0.199 0.036-0.407-0.028-0.601s-0.179-0.367-0.333-0.501zM21.967 7.774l-11.199 8.020-6.2-1.216 17.399-6.804zM11.999 25v-5.935l3.099 2.717-3.099 3.218zM22.941 26l-10.335-9.063 14.875-10.661-4.54 19.724z"></path>
</symbol>
<symbol id="icon-arrow-right2" viewBox="0 0 32 32">
<path fill="#5A5959" d="M19.414 27.414l10-10c0.781-0.781 0.781-2.047 0-2.828l-10-10c-0.781-0.781-2.047-0.781-2.828 0s-0.781 2.047 0 2.828l6.586 6.586h-19.172c-1.105 0-2 0.895-2 2s0.895 2 2 2h19.172l-6.586 6.586c-0.39 0.39-0.586 0.902-0.586 1.414s0.195 1.024 0.586 1.414c0.781 0.781 2.047 0.781 2.828 0z"></path>
</symbol>
<symbol id="icon-arrow-left2" viewBox="0 0 32 32">
<path fill="#5A5959" d="M12.586 27.414l-10-10c-0.781-0.781-0.781-2.047 0-2.828l10-10c0.781-0.781 2.047-0.781 2.828 0s0.781 2.047 0 2.828l-6.586 6.586h19.172c1.105 0 2 0.895 2 2s-0.895 2-2 2h-19.172l6.586 6.586c0.39 0.39 0.586 0.902 0.586 1.414s-0.195 1.024-0.586 1.414c-0.781 0.781-2.047 0.781-2.828 0z"></path>
</symbol>
<symbol id="icon-directions_bus" viewBox="0 0 32 32">
<path fill="#fff" style="fill: var(--color1, #fff)" d="M9.385 26.667c-0.189 0-0.347-0.064-0.475-0.192s-0.192-0.286-0.192-0.475v-2.528c-0.434-0.188-0.885-0.589-1.351-1.201s-0.7-1.318-0.7-2.117v-12.154c0-1.383 0.749-2.396 2.246-3.037s3.859-0.963 7.087-0.963c3.344 0 5.736 0.308 7.175 0.925s2.159 1.642 2.159 3.075v12.154c0 0.798-0.233 1.504-0.7 2.117s-0.917 1.013-1.351 1.201v2.528c0 0.189-0.064 0.347-0.192 0.475s-0.286 0.192-0.475 0.192h-0.308c-0.189 0-0.347-0.064-0.475-0.192s-0.192-0.286-0.192-0.475v-2h-11.282v2c0 0.189-0.064 0.347-0.192 0.475s-0.286 0.192-0.475 0.192h-0.308zM8 14.667h16v-5.949h-16v5.949zM11.339 20.821c0.415 0 0.765-0.145 1.052-0.436s0.429-0.643 0.429-1.058-0.145-0.765-0.435-1.052c-0.29-0.286-0.643-0.429-1.058-0.429s-0.765 0.145-1.052 0.436c-0.286 0.29-0.429 0.643-0.429 1.058s0.145 0.765 0.435 1.052c0.29 0.286 0.643 0.429 1.058 0.429zM20.673 20.821c0.415 0 0.765-0.145 1.052-0.436s0.429-0.643 0.429-1.058-0.145-0.765-0.436-1.052c-0.29-0.286-0.643-0.429-1.058-0.429s-0.765 0.145-1.052 0.436c-0.286 0.29-0.429 0.643-0.429 1.058s0.145 0.765 0.436 1.052c0.29 0.286 0.643 0.429 1.058 0.429zM8.138 7.385h15.754c-0.231-0.685-0.943-1.199-2.137-1.54s-3.107-0.512-5.74-0.512c-2.617 0-4.523 0.173-5.717 0.519s-1.914 0.857-2.16 1.532zM10.667 22.667h10.667c0.733 0 1.361-0.261 1.883-0.783s0.783-1.15 0.783-1.883v-4h-16v4c0 0.733 0.261 1.361 0.783 1.883s1.15 0.783 1.883 0.783z"></path>
</symbol>
<symbol id="icon-face_4" viewBox="0 0 32 32">
<path fill="#fff" style="fill: var(--color1, #fff)" d="M12 21.667c-0.467 0-0.861-0.161-1.183-0.483s-0.483-0.717-0.483-1.183 0.161-0.861 0.483-1.183c0.322-0.322 0.717-0.483 1.183-0.483s0.861 0.161 1.183 0.483c0.322 0.322 0.483 0.717 0.483 1.183s-0.161 0.861-0.483 1.183c-0.322 0.322-0.717 0.483-1.183 0.483zM20 21.667c-0.467 0-0.861-0.161-1.183-0.483s-0.483-0.717-0.483-1.183 0.161-0.861 0.483-1.183c0.322-0.322 0.717-0.483 1.183-0.483s0.861 0.161 1.183 0.483c0.322 0.322 0.483 0.717 0.483 1.183s-0.161 0.861-0.483 1.183c-0.322 0.322-0.717 0.483-1.183 0.483zM16 29.333c2.978 0 5.5-1.033 7.567-3.1s3.1-4.589 3.1-7.567c0-0.533-0.033-1.050-0.1-1.55s-0.189-0.983-0.367-1.45c-0.467 0.111-0.933 0.195-1.4 0.25s-0.955 0.083-1.467 0.083c-2.022 0-3.933-0.433-5.733-1.3s-3.333-2.078-4.6-3.633c-0.711 1.733-1.728 3.239-3.050 4.517s-2.861 2.239-4.617 2.883v0.2c0 2.978 1.033 5.5 3.1 7.567s4.589 3.1 7.567 3.1zM12.944 8.423c1.087 2.171 2.623 3.754 4.608 4.75s3.912 1.494 5.782 1.494c0.414 0 0.821-0.021 1.221-0.063s0.798-0.111 1.195-0.206c-0.848-1.983-2.161-3.545-3.941-4.686s-3.715-1.712-5.808-1.712c-0.585 0-1.12 0.034-1.605 0.101s-0.969 0.175-1.451 0.322zM5.516 16.941c1.373-0.61 2.763-1.61 4.172-3s2.23-3.137 2.464-5.241c-1.783 0.679-3.259 1.747-4.428 3.205s-1.905 3.137-2.208 5.036zM4.567 15.279c0.485-1.776 1.337-3.341 2.555-4.696s2.689-2.36 4.414-3.017c-0.48-0.603-1.076-1.092-1.787-1.467s-1.496-0.562-2.355-0.562c-1.481 0-2.733 0.512-3.756 1.537s-1.535 2.279-1.535 3.763c0 0.934 0.226 1.788 0.677 2.561s1.047 1.4 1.787 1.88zM16.005 30.667c-1.659 0-3.22-0.315-4.68-0.945s-2.732-1.485-3.812-2.565c-1.081-1.080-1.936-2.35-2.566-3.81s-0.946-3.020-0.946-4.68c0-0.35 0.015-0.698 0.044-1.042s0.081-0.677 0.156-0.999c-1.041-0.561-1.873-1.354-2.496-2.38s-0.935-2.162-0.935-3.407c0-1.844 0.644-3.411 1.933-4.7s2.856-1.933 4.7-1.933c1.127 0 2.163 0.262 3.109 0.786s1.719 1.226 2.319 2.106c0.509-0.144 1.030-0.251 1.561-0.323s1.067-0.108 1.608-0.108c1.66 0 3.22 0.315 4.68 0.945s2.73 1.484 3.81 2.564 1.935 2.349 2.565 3.809c0.63 1.459 0.945 3.019 0.945 4.678s-0.315 3.219-0.945 4.68c-0.63 1.461-1.484 2.732-2.564 3.812s-2.349 1.936-3.809 2.567c-1.459 0.63-3.019 0.945-4.678 0.945z"></path>
</symbol>
<symbol id="icon-id-card-svgrepo-com" viewBox="0 0 32 32">
<path fill="#fff" style="fill: var(--color1, #fff)" d="M28 5.25h-24c-1.518 0.002-2.748 1.232-2.75 2.75v16c0.002 1.518 1.232 2.748 2.75 2.75h24c1.518-0.002 2.748-1.232 2.75-2.75v-16c-0.002-1.518-1.232-2.748-2.75-2.75zM4 6.75h24c0.69 0.001 1.249 0.56 1.25 1.25v1.25h-26.5v-1.25c0.001-0.69 0.56-1.249 1.25-1.25zM28 25.25h-24c-0.69-0.001-1.249-0.56-1.25-1.25v-13.25h26.5v13.25c-0.001 0.69-0.56 1.249-1.25 1.25zM9.645 17.628c1.455 0 2.635-1.18 2.635-2.635s-1.18-2.635-2.635-2.635-2.635 1.18-2.635 2.635c0.001 1.455 1.18 2.633 2.635 2.635zM9.645 13.858c0.627 0 1.135 0.508 1.135 1.135s-0.508 1.135-1.135 1.135-1.135-0.508-1.135-1.135c0.001-0.627 0.508-1.134 1.135-1.135zM9.645 18.811c-2.15 0.009-3.947 1.51-4.41 3.52l-0.006 0.031c-0.011 0.048-0.017 0.103-0.017 0.16 0 0.414 0.336 0.75 0.75 0.75 0.357 0 0.656-0.25 0.731-0.585l0.001-0.005c0.309-1.366 1.512-2.371 2.951-2.371s2.642 1.005 2.947 2.351l0.004 0.020c0.077 0.338 0.375 0.587 0.732 0.587 0.414 0 0.75-0.336 0.75-0.75 0-0.056-0.006-0.11-0.018-0.163l0.001 0.005c-0.469-2.041-2.265-3.541-4.414-3.551h-0.001l-0.001 0.001zM26 13.25h-8c-0.414 0-0.75 0.336-0.75 0.75s0.336 0.75 0.75 0.75h8c0.414 0 0.75-0.336 0.75-0.75s-0.336-0.75-0.75-0.75zM26 17.25h-8c-0.414 0-0.75 0.336-0.75 0.75s0.336 0.75 0.75 0.75h8c0.414 0 0.75-0.336 0.75-0.75s-0.336-0.75-0.75-0.75zM26 21.25h-8c-0.414 0-0.75 0.336-0.75 0.75s0.336 0.75 0.75 0.75h8c0.414 0 0.75-0.336 0.75-0.75s-0.336-0.75-0.75-0.75z"></path>
</symbol>
<symbol id="icon-ticket-blank-svgrepo-com" viewBox="0 0 32 32">
<path fill="#fff" style="fill: var(--color1, #fff)" d="M30 13.75c0.414 0 0.75-0.336 0.75-0.75v-5c0-0.414-0.336-0.75-0.75-0.75h-28c-0.414 0-0.75 0.336-0.75 0.75v5c0 0.414 0.336 0.75 0.75 0.75 1.243 0 2.25 1.007 2.25 2.25s-1.007 2.25-2.25 2.25c-0.414 0-0.75 0.336-0.75 0.75v5c0 0.414 0.336 0.75 0.75 0.75h28c0.414 0 0.75-0.336 0.75-0.75v-5c0-0.414-0.336-0.75-0.75-0.75-1.243 0-2.25-1.007-2.25-2.25s1.007-2.25 2.25-2.25zM29.25 19.674v3.576h-26.5v-3.576c1.724-0.361 3-1.869 3-3.674s-1.276-3.313-2.975-3.67l-0.024-0.004v-3.576h26.5v3.576c-1.724 0.361-3 1.869-3 3.674s1.276 3.313 2.975 3.67l0.024 0.004z"></path>
</symbol>
</defs>
</svg>
