<svg width="24" height="24" viewBox="0 0 24 24" fill="none" xmlns="http://www.w3.org/2000/svg">
<path d="M22.5 10.3125C22.8105 10.3125 23.0625 10.0605 23.0625 9.75V6C23.0625 5.6895 22.8105 5.4375 22.5 5.4375H1.5C1.1895 5.4375 0.9375 5.6895 0.9375 6V9.75C0.9375 10.0605 1.1895 10.3125 1.5 10.3125C2.43225 10.3125 3.1875 11.0677 3.1875 12C3.1875 12.9323 2.43225 13.6875 1.5 13.6875C1.1895 13.6875 0.9375 13.9395 0.9375 14.25V18C0.9375 18.3105 1.1895 18.5625 1.5 18.5625H22.5C22.8105 18.5625 23.0625 18.3105 23.0625 18V14.25C23.0625 13.9395 22.8105 13.6875 22.5 13.6875C21.5677 13.6875 20.8125 12.9323 20.8125 12C20.8125 11.0677 21.5677 10.3125 22.5 10.3125ZM21.9375 14.7555V17.4375H2.0625V14.7555C3.3555 14.4847 4.3125 13.3537 4.3125 12C4.3125 10.6463 3.3555 9.51525 2.08125 9.2475L2.06325 9.2445V6.5625H21.9382V9.2445C20.6453 9.51525 19.6882 10.6463 19.6882 12C19.6882 13.3537 20.6453 14.4847 21.9195 14.7525L21.9375 14.7555Z" fill="white"/>
</svg>
